<svg width="75" height="62" viewBox="0 0 75 62" fill="none" xmlns="http://www.w3.org/2000/svg">
    <rect width="74.4" height="62.496" fill="rgba(255,255,255,0)" />
    <g clip-path="url(#clip0_4739_2464)">
        <path
            d="M43.8241 37.5415C42.2951 37.5401 41.0543 38.7784 41.0528 40.3075C41.0513 41.8365 42.2897 43.0773 43.8187 43.0788C45.3478 43.0802 46.5886 41.8419 46.5901 40.3128V40.3102C46.5886 38.7827 45.3515 37.5445 43.8241 37.5415Z"
            fill="#B1B1B1" />
        <path
            d="M48.7347 24.2838C48.6685 24.271 48.6011 24.2645 48.5337 24.2644H31.6763L31.4093 22.4782C31.243 21.292 30.2283 20.4095 29.0305 20.4091H26.8599C26.2701 20.4091 25.7919 20.8872 25.7919 21.4771C25.7919 22.0669 26.2701 22.545 26.8599 22.545H29.0331C29.1689 22.544 29.2839 22.6451 29.3001 22.78L30.9447 34.052C31.1702 35.4844 32.4023 36.541 33.8522 36.5457H44.9614C46.3574 36.5475 47.5617 35.5664 47.8422 34.1989L49.5803 25.5352C49.6923 24.9561 49.3138 24.3959 48.7347 24.2838Z"
            fill="#B1B1B1" />
        <path
            d="M37.0417 40.1916C36.9766 38.7074 35.7517 37.539 34.2661 37.5442C32.7382 37.6059 31.5497 38.8945 31.6115 40.4223C31.6707 41.8883 32.8632 43.0535 34.3301 43.0788H34.3969C35.9245 43.0118 37.1086 41.7192 37.0417 40.1916Z"
            fill="#B1B1B1" />
    </g>
    <circle cx="49.6" cy="24.8" r="5.952" fill="#FEC54B" stroke="rgba(250,254,252,0)" stroke-width="1.984" />
    <defs>
        <clipPath id="clip0_4739_2464">
            <rect width="23.808" height="23.808" fill="rgba(255,255,255,0)" transform="translate(25.792 19.84)" />
        </clipPath>
    </defs>
</svg>